# xmcd CD database file
#
# Track frame offsets:
#	150
#	19607
#	38327
#	57372
#	77650
#	92175
#	110145
#	123710
#	142715
#	156740
#	174980
#	192335
#	211447
#	224807
#	239115
#	255003
#
# Disc length: 3630 seconds
#
# Revision: 0
# Processed by: cddbd v1.5.1PL2 Copyright (c) Steve Scherf et al.
# Submitted via: CDex 1.51
#
DISCID=e60e2c10
DTITLE=セリーヌ・ディオン - オン・ヌ・シャンジュ・パ　Disc-2
DYEAR=2006
DGENRE=Pop
TTITLE0=バレー
TTITLE1=自然に反する
TTITLE2=わたしは頭の中で踊る
TTITLE3=ビジネスマンのブルース
TTITLE4=優しい歌
TTITLE5=愛か友情か
TTITLE6=カレにふられた
TTITLE7=わたしの家へと続く道
TTITLE8=わたしをおいていかないで (1998年ユーロビジョン歌謡曲大賞受賞作)
TTITLE9=いやだ
TTITLE10=ソラは微笑む
TTITLE11=運命
TTITLE12=あなたをわたしはこんなにも愛しているから
TTITLE13=わたしのヌヴェル・フランス
TTITLE14=最後に来る者が一番になる
TTITLE15=夢に過ぎなかった
EXTD=YEAR: 2006
EXTT0=
EXTT1=
EXTT2=
EXTT3=
EXTT4=
EXTT5=
EXTT6=
EXTT7=
EXTT8=
EXTT9=
EXTT10=
EXTT11=
EXTT12=
EXTT13=
EXTT14=
EXTT15=
PLAYORDER=
